<svg xmlns="http://www.w3.org/2000/svg" xmlns:xlink="http://www.w3.org/1999/xlink" version="1.1" width="100px" height="100px" viewBox="0 0 256 256" xml:space="preserve">

<defs>
</defs>
<g style="stroke: none; stroke-width: 0; stroke-dasharray: none; stroke-linecap: butt; stroke-linejoin: miter; stroke-miterlimit: 10; fill: none; fill-rule: nonzero; opacity: 1;" transform="translate(1.4065934065934016 1.4065934065934016) scale(2.81 2.81)" >
	<path d="M 87.205 60.609 c 0.031 -0.085 0.064 -0.169 0.095 -0.254 c 0.211 -0.581 0.409 -1.169 0.597 -1.761 c 0.035 -0.109 0.071 -0.217 0.105 -0.326 c 0.18 -0.584 0.347 -1.174 0.503 -1.768 c 0.03 -0.112 0.063 -0.224 0.092 -0.336 c 0.166 -0.648 0.317 -1.302 0.454 -1.961 c 0.011 -0.055 0.026 -0.108 0.037 -0.163 c 0.14 -0.689 0.267 -1.382 0.375 -2.082 c -0.001 -0.001 -0.001 -0.002 -0.002 -0.003 C 89.814 49.687 90 47.365 90 45 c 0 -15.417 -7.796 -29.044 -19.65 -37.157 c 0.008 -0.002 0.016 -0.004 0.023 -0.006 c -4.211 -2.88 -8.937 -5.059 -14.01 -6.381 c -0.104 -0.027 -0.209 -0.053 -0.314 -0.08 c -0.586 -0.148 -1.177 -0.285 -1.773 -0.41 c -0.111 -0.023 -0.221 -0.048 -0.332 -0.071 c -1.355 -0.274 -2.732 -0.486 -4.129 -0.635 c -0.189 -0.02 -0.379 -0.037 -0.568 -0.055 c -0.516 -0.048 -1.035 -0.088 -1.556 -0.119 c -0.199 -0.012 -0.398 -0.025 -0.598 -0.034 C 46.399 0.021 45.702 0 45 0 C 20.147 0 0 20.147 0 45 c 0 0.84 0.028 1.674 0.073 2.503 c 0.01 0.176 0.028 0.35 0.04 0.525 c 0.045 0.671 0.101 1.34 0.175 2.003 c 0.017 0.149 0.039 0.297 0.057 0.446 c 0.085 0.696 0.184 1.388 0.301 2.075 c 0.019 0.113 0.04 0.224 0.06 0.337 c 0.126 0.708 0.268 1.41 0.426 2.107 c 0.013 0.056 0.021 0.113 0.034 0.168 c 0.002 0 0.003 0.001 0.005 0.001 c 1.771 7.639 5.482 14.543 10.6 20.148 c -0.004 0.006 -0.01 0.01 -0.014 0.016 c 3.373 3.695 7.361 6.813 11.791 9.221 c 0.011 0.006 0.023 0.013 0.034 0.019 c 0.603 0.327 1.215 0.641 1.834 0.941 c 0.061 0.03 0.123 0.059 0.184 0.089 c 0.58 0.278 1.165 0.543 1.758 0.796 c 0.108 0.046 0.217 0.091 0.326 0.137 c 0.556 0.232 1.116 0.455 1.683 0.665 c 0.156 0.058 0.313 0.113 0.469 0.169 c 0.53 0.19 1.064 0.373 1.603 0.543 c 0.203 0.064 0.408 0.123 0.612 0.185 c 0.504 0.151 1.008 0.299 1.519 0.432 c 0.253 0.066 0.509 0.125 0.763 0.187 c 0.472 0.115 0.945 0.229 1.423 0.329 c 0.307 0.064 0.618 0.118 0.927 0.176 c 0.437 0.082 0.872 0.166 1.313 0.235 c 0.37 0.058 0.745 0.102 1.118 0.151 c 0.39 0.051 0.778 0.108 1.171 0.149 c 0.468 0.049 0.941 0.079 1.413 0.114 c 0.307 0.022 0.612 0.054 0.921 0.07 C 43.409 89.977 44.202 90 45 90 c 0.743 0 1.482 -0.021 2.216 -0.056 c 0.218 -0.011 0.433 -0.031 0.651 -0.045 c 0.52 -0.033 1.039 -0.068 1.554 -0.119 c 0.237 -0.023 0.471 -0.054 0.707 -0.081 c 0.497 -0.056 0.993 -0.117 1.486 -0.189 c 0.225 -0.033 0.448 -0.072 0.671 -0.108 c 0.507 -0.083 1.012 -0.172 1.514 -0.271 c 0.197 -0.039 0.392 -0.081 0.588 -0.122 c 0.537 -0.114 1.071 -0.237 1.601 -0.37 c 0.153 -0.038 0.305 -0.077 0.457 -0.117 c 0.591 -0.155 1.176 -0.322 1.758 -0.5 c 0.087 -0.027 0.174 -0.052 0.261 -0.079 c 12.622 -3.954 22.846 -13.315 27.965 -25.375 c 0.019 -0.044 0.038 -0.088 0.056 -0.133 C 86.737 61.832 86.977 61.224 87.205 60.609 z M 88 45 c 0 1.2 -0.062 2.385 -0.159 3.561 c -0.082 -0.204 -0.163 -0.41 -0.246 -0.609 c -0.894 -2.153 -2.972 -4.426 -5.165 -3.636 c -3.294 1.186 -1.975 7.317 -5.243 8.573 c -1.242 -3.161 -2.484 -6.321 -3.726 -9.482 c -0.313 -0.796 -0.646 -1.623 -1.285 -2.192 c -0.589 -0.525 -1.369 -0.77 -2.124 -1 c -2.918 -0.891 -5.837 -1.782 -8.755 -2.672 c -0.241 1.549 1.566 2.517 3.011 3.124 c 1.446 0.606 3.095 2.042 2.352 3.423 c -0.203 0.378 -0.557 0.648 -0.909 0.894 c -1.883 1.317 -4.002 2.296 -6.226 2.874 c -1.757 -1.594 -3.173 -3.546 -4.196 -5.686 c 1.54 3.125 -1.261 7.544 0.279 10.669 c 0.203 0.412 0.425 0.845 0.815 1.088 c 1.143 0.711 3.158 -0.478 3.761 0.725 c 0.176 0.35 0.113 0.772 -0.008 1.145 c -0.717 2.222 -3.182 3.538 -3.873 5.769 c -0.483 1.561 0.004 3.253 -0.163 4.879 c -0.297 2.886 -2.548 5.116 -4.019 7.617 c -0.854 1.451 -1.477 3.064 -2.606 4.313 c -4.375 4.84 -8.432 -2.077 -8.641 -6.182 c -0.142 -2.785 0.782 -5.799 -0.568 -8.238 c -0.448 -0.809 -1.137 -1.527 -1.264 -2.443 c -0.112 -0.807 0.24 -1.596 0.39 -2.397 c 0.149 -0.801 -0.009 -1.798 -0.75 -2.137 c -0.523 -0.238 -1.129 -0.054 -1.679 0.11 c -2.665 0.797 -5.485 1.075 -8.254 0.811 c -0.504 -0.048 -1.03 -0.123 -1.436 -0.425 c -0.353 -0.263 -0.57 -0.665 -0.767 -1.058 c -1.044 -2.079 -1.855 -4.313 -2.014 -6.634 c -0.159 -2.321 0.384 -4.745 1.815 -6.579 c 2.15 -2.756 5.818 -3.732 9.218 -4.542 c 1.552 -0.37 3.546 -0.575 4.399 0.773 c 0.491 0.776 0.455 1.919 1.231 2.41 c 0.402 0.255 0.911 0.247 1.387 0.23 c 1.892 -0.066 3.043 0.332 4.935 0.265 c 0.609 -0.021 1.987 0.143 2.512 -0.166 c 4.29 -2.527 5.057 -0.499 5.299 -0.005 c -0.812 -1.699 -1.383 -3.514 -1.64 -5.38 c -0.126 -0.918 -0.239 -1.954 -0.966 -2.529 c -0.772 -0.61 -1.872 -1.459 -2.854 -1.397 c -1.817 0.116 -4.505 3.534 -5.239 1.868 c -0.562 -1.276 -4.377 -6.053 -8.184 -4.966 c -1.667 0.476 -1.403 2.89 -3.007 3.546 c -1.601 0.655 -5.691 1.582 -5.883 -0.138 c -0.318 -2.855 0.265 -5.56 1.784 -6.32 c 1.001 -0.863 1.573 -0.509 3.421 -0.914 c 2.128 -0.455 3.554 -1.483 5.165 -2.946 c 0.703 -0.639 1.365 -1.379 2.256 -1.709 c 2.059 -0.762 4.419 0.955 6.487 0.219 c 1.326 -0.472 2.143 -1.873 2.331 -3.268 c 0.189 -1.395 -0.135 -2.803 -0.457 -4.174 c -0.105 -0.448 -0.261 -0.958 -0.685 -1.134 c -0.28 -0.116 -0.6 -0.048 -0.887 0.047 c -1.414 0.466 -3.84 0.334 -4.406 1.711 c -0.574 1.397 -0.864 2.784 -2.357 3.01 c -0.714 0.108 -2.062 -0.286 -2.664 -0.684 c -0.819 -0.541 -1.613 -0.705 -1.589 -1.686 c 0.028 -1.162 1.831 -3.083 2.708 -3.846 c 2.03 -1.767 2.716 -2.449 5.125 -3.651 c 2.294 -1.144 9.222 0.014 9.948 2.677 c 0.327 1.199 -0.42 3.076 1.352 3.267 c 1.293 0.139 3.708 -1.813 4.859 -2.369 c 2.509 -1.213 5.146 -2.088 7.827 -2.852 C 79.908 16.158 88 29.648 88 45 z M 30.16 15.741 c -0.1 -0.563 0.276 -1.101 0.839 -1.201 c 0.566 -0.1 1.1 0.276 1.2 0.839 c 0.139 0.784 0.296 1.673 0.208 2.59 c -0.111 1.16 1.419 3.149 0.632 3.76 c -0.3 0.234 -2.657 0.409 -2.951 0.564 c -0.208 0.11 -0.696 0.368 -0.714 0.474 c -0.086 0.505 -0.524 -0.151 -1.02 -0.151 c -0.058 0 -0.116 -0.005 -0.175 -0.015 c -0.564 -0.097 -0.943 -0.632 -0.846 -1.195 c 0.19 -1.112 1.114 -1.6 1.789 -1.956 c 0.239 -0.126 0.464 -0.245 0.621 -0.367 c 0.329 -0.255 0.548 -0.733 0.603 -1.311 C 30.406 17.135 30.286 16.458 30.16 15.741 z M 5.114 57.019 c 1.313 0.552 2.98 0.146 4.099 1.028 c 0.57 0.449 0.875 1.152 1.365 1.687 c 1.157 1.263 3.062 1.371 4.73 1.76 c 1.668 0.389 3.527 1.593 3.327 3.294 c -0.169 1.436 -1.735 2.323 -2.155 3.706 c -0.241 0.796 -0.073 1.67 -0.299 2.471 c -0.39 1.385 -1.748 2.11 -2.953 2.98 c -4.547 -4.987 -7.931 -11.046 -9.741 -17.746 C 4.05 56.515 4.645 56.822 5.114 57.019 z M 56.294 74.53 c 0.174 -0.411 0.39 -0.751 0.58 -1.051 c 0.128 -0.202 0.258 -0.403 0.365 -0.626 c 0.406 -0.839 0.464 -2.047 0.514 -3.112 c 0.027 -0.57 0.389 -0.985 0.785 -0.965 c 0.407 0.038 0.714 0.532 0.687 1.102 c -0.061 1.262 1.308 2.834 0.677 4.137 c -0.153 0.317 -0.321 0.583 -0.485 0.839 c -0.16 0.254 -0.312 0.493 -0.414 0.732 c -0.138 0.326 -1.826 0.507 -2.077 0.507 c -0.128 0 -0.258 -0.047 -0.376 -0.146 C 56.201 75.656 56.086 75.021 56.294 74.53 z" style="stroke: none; stroke-width: 1; stroke-dasharray: none; stroke-linecap: butt; stroke-linejoin: miter; stroke-miterlimit: 10; fill: rgb(0,0,0); fill-rule: nonzero; opacity: 1;" transform=" matrix(1 0 0 1 0 0) " stroke-linecap="round" />
</g>
</svg>