<svg xmlns="http://www.w3.org/2000/svg" xmlns:xlink="http://www.w3.org/1999/xlink" version="1.1" width="40px" height="40px" viewBox="0 0 256 256" xml:space="preserve">

<defs>
</defs>
<g style="stroke: none; stroke-width: 0; stroke-dasharray: none; stroke-linecap: butt; stroke-linejoin: miter; stroke-miterlimit: 10; fill: none; fill-rule: nonzero; opacity: 1;" transform="translate(1.4065934065934016 1.4065934065934016) scale(2.81 2.81)" >
	<path d="M 89.978 10.686 c -0.016 -0.413 -0.043 -0.82 -0.079 -1.223 c -0.014 -0.152 -0.024 -0.306 -0.04 -0.456 C 89.8 8.47 89.727 7.941 89.633 7.425 c -0.013 -0.07 -0.031 -0.136 -0.044 -0.206 c -0.086 -0.446 -0.187 -0.883 -0.301 -1.313 c -0.041 -0.155 -0.087 -0.306 -0.131 -0.459 c -0.104 -0.354 -0.218 -0.702 -0.342 -1.044 c -0.051 -0.142 -0.1 -0.285 -0.155 -0.424 c -0.181 -0.463 -0.375 -0.917 -0.594 -1.355 c -0.437 -0.219 -0.892 -0.413 -1.355 -0.594 c -0.139 -0.055 -0.282 -0.104 -0.424 -0.155 c -0.342 -0.124 -0.69 -0.238 -1.044 -0.342 c -0.152 -0.045 -0.304 -0.09 -0.459 -0.131 c -0.429 -0.114 -0.866 -0.215 -1.312 -0.301 c -0.069 -0.013 -0.136 -0.031 -0.206 -0.044 c -0.516 -0.095 -1.044 -0.167 -1.581 -0.226 c -0.152 -0.017 -0.306 -0.027 -0.46 -0.041 c -0.401 -0.036 -0.807 -0.063 -1.218 -0.079 c -0.178 -0.007 -0.356 -0.014 -0.536 -0.017 c -0.451 -0.009 -0.909 -0.005 -1.371 0.009 c -0.119 0.004 -0.236 0.002 -0.356 0.007 c -0.58 0.025 -1.169 0.068 -1.766 0.127 c -0.15 0.015 -0.303 0.036 -0.454 0.053 c -0.459 0.052 -0.922 0.113 -1.389 0.184 c -0.196 0.03 -0.392 0.062 -0.589 0.095 c -0.471 0.08 -0.947 0.171 -1.426 0.271 c -0.157 0.033 -0.312 0.061 -0.47 0.096 c -0.63 0.139 -1.266 0.294 -1.908 0.466 c -0.13 0.035 -0.262 0.076 -0.393 0.112 c -0.519 0.144 -1.042 0.299 -1.568 0.465 c -0.207 0.065 -0.415 0.133 -0.623 0.202 c -0.487 0.16 -0.976 0.33 -1.467 0.508 c -0.185 0.067 -0.369 0.131 -0.554 0.2 c -0.666 0.249 -1.334 0.512 -2.007 0.793 c -0.085 0.035 -0.17 0.075 -0.255 0.111 c -0.592 0.251 -1.186 0.514 -1.782 0.789 c -0.209 0.096 -0.417 0.196 -0.627 0.295 c -0.499 0.237 -1 0.482 -1.502 0.736 c -0.203 0.103 -0.406 0.203 -0.609 0.309 c -0.685 0.355 -1.371 0.72 -2.059 1.105 c -0.001 0.001 -0.002 0.001 -0.003 0.002 c -6.386 3.579 -12.868 8.471 -18.907 14.509 c -1.686 1.686 -3.276 3.409 -4.78 5.153 c -0.642 -0.039 -1.28 -0.097 -1.932 -0.097 c -14.038 0 -25.984 8.83 -30.673 21.226 c 4.437 -2.238 9.436 -3.528 14.745 -3.528 c 2.008 0 3.964 0.208 5.873 0.554 c -1.156 2.463 -2.112 4.893 -2.848 7.257 l 3.834 3.834 c -0.317 0.295 -0.634 0.588 -0.945 0.899 c -7.097 7.097 -12.32 17.758 -9.935 22.527 c 4.77 2.386 15.43 -2.838 22.527 -9.935 c 0.311 -0.311 0.604 -0.629 0.899 -0.945 l 3.834 3.834 c 2.759 -0.859 5.608 -2.02 8.494 -3.449 c 0.684 2.639 1.086 5.391 1.086 8.244 c 0 4.088 -0.781 7.984 -2.147 11.594 c 10.712 -5.403 18.075 -16.475 18.075 -29.292 c 0 -0.652 -0.058 -1.289 -0.097 -1.932 c 1.744 -1.504 3.466 -3.094 5.153 -4.78 c 6.69 -6.69 11.967 -13.923 15.616 -20.969 c 0.105 -0.203 0.206 -0.406 0.309 -0.609 c 0.253 -0.501 0.499 -1.001 0.735 -1.5 c 0.1 -0.21 0.2 -0.42 0.297 -0.63 c 0.275 -0.595 0.538 -1.189 0.788 -1.779 c 0.036 -0.085 0.076 -0.171 0.112 -0.257 c 0.282 -0.673 0.544 -1.342 0.793 -2.008 c 0.069 -0.185 0.133 -0.367 0.199 -0.551 c 0.179 -0.493 0.349 -0.984 0.51 -1.473 c 0.068 -0.206 0.135 -0.412 0.2 -0.617 c 0.166 -0.528 0.321 -1.052 0.466 -1.572 c 0.036 -0.13 0.077 -0.262 0.112 -0.391 c 0.173 -0.642 0.327 -1.278 0.466 -1.908 c 0.035 -0.157 0.063 -0.312 0.096 -0.469 c 0.1 -0.48 0.191 -0.956 0.271 -1.428 c 0.033 -0.197 0.065 -0.393 0.095 -0.588 c 0.072 -0.467 0.133 -0.93 0.184 -1.389 c 0.017 -0.151 0.038 -0.304 0.053 -0.455 c 0.059 -0.596 0.102 -1.185 0.127 -1.765 c 0.005 -0.12 0.004 -0.236 0.007 -0.355 c 0.014 -0.463 0.017 -0.921 0.009 -1.373 C 89.992 11.04 89.985 10.863 89.978 10.686 z M 62.328 41.846 c -3.723 3.723 -9.76 3.723 -13.483 0 c -3.723 -3.723 -3.723 -9.76 0 -13.483 c 3.723 -3.723 9.76 -3.723 13.483 0 C 66.051 32.086 66.051 38.122 62.328 41.846 z" style="stroke: none; stroke-width: 1; stroke-dasharray: none; stroke-linecap: butt; stroke-linejoin: miter; stroke-miterlimit: 10; fill: rgb(0,0,0); fill-rule: nonzero; opacity: 1;" transform=" matrix(1 0 0 1 0 0) " stroke-linecap="round" />
</g>
</svg>