<svg xmlns="http://www.w3.org/2000/svg" xmlns:xlink="http://www.w3.org/1999/xlink" version="1.1" width="50px" height="50px" viewBox="0 0 256 256" xml:space="preserve">

<defs>
</defs>
<g style="stroke: none; stroke-width: 0; stroke-dasharray: none; stroke-linecap: butt; stroke-linejoin: miter; stroke-miterlimit: 10; fill: none; fill-rule: nonzero; opacity: 1;" transform="translate(1.4065934065934016 1.4065934065934016) scale(2.81 2.81)" >
	<path d="M 54.709 31.471 H 3.809 l -1.561 35.31 c 0 1.339 1.833 3.112 3.172 3.112 l 5.925 0.18 l 1.318 9.718 l 8.419 -8.263 h 33.627 c 1.339 0 2.424 -1.086 2.424 -2.425 V 33.896 C 57.134 32.557 56.048 31.471 54.709 31.471 z" style="stroke: none; stroke-width: 1; stroke-dasharray: none; stroke-linecap: butt; stroke-linejoin: miter; stroke-miterlimit: 10; fill: rgb(105,188,69); fill-rule: nonzero; opacity: 1;" transform=" matrix(1 0 0 1 0 0) " stroke-linecap="round" />
	<path d="M 12.664 79.791 V 68.989 h -6.43 c -1.339 0 -2.425 -1.086 -2.425 -2.425 V 31.471 H 2.425 C 1.085 31.471 0 32.557 0 33.896 v 35.208 c 0 1.339 1.085 2.425 2.425 2.425 h 6.43 v 12.001 L 12.664 79.791 z" style="stroke: none; stroke-width: 1; stroke-dasharray: none; stroke-linecap: butt; stroke-linejoin: miter; stroke-miterlimit: 10; fill: rgb(85,159,52); fill-rule: nonzero; opacity: 1;" transform=" matrix(1 0 0 1 0 0) " stroke-linecap="round" />
	<rect x="26.95" y="61.08" rx="0" ry="0" width="2.97" height="3.09" style="stroke: none; stroke-width: 1; stroke-dasharray: none; stroke-linecap: butt; stroke-linejoin: miter; stroke-miterlimit: 10; fill: rgb(255,255,255); fill-rule: nonzero; opacity: 1;" transform=" matrix(1 0 0 1 0 0) "/>
	<path d="M 29.914 59.346 h -2.969 v -6.889 c 0 -0.82 0.664 -1.485 1.485 -1.485 c 2.544 0 4.614 -2.07 4.614 -4.615 c 0 -2.544 -2.07 -4.614 -4.614 -4.614 s -4.615 2.07 -4.615 4.614 h -2.969 c 0 -4.182 3.402 -7.583 7.584 -7.583 s 7.583 3.402 7.583 7.583 c 0 3.674 -2.626 6.746 -6.099 7.438 V 59.346 z" style="stroke: none; stroke-width: 1; stroke-dasharray: none; stroke-linecap: butt; stroke-linejoin: miter; stroke-miterlimit: 10; fill: rgb(255,255,255); fill-rule: nonzero; opacity: 1;" transform=" matrix(1 0 0 1 0 0) " stroke-linecap="round" />
	<path d="M 87.575 6.471 h -1.384 H 35.291 c -1.339 0 -2.424 1.086 -2.424 2.425 v 16.575 h 21.843 c 4.646 0 8.425 3.779 8.425 8.424 v 12.633 h 5.784 l 8.419 8.263 l 3.809 3.738 V 46.528 h 6.43 c 1.339 0 2.425 -1.086 2.425 -2.424 V 8.896 C 90 7.557 88.914 6.471 87.575 6.471 z" style="stroke: none; stroke-width: 1; stroke-dasharray: none; stroke-linecap: butt; stroke-linejoin: miter; stroke-miterlimit: 10; fill: rgb(105,188,69); fill-rule: nonzero; opacity: 1;" transform=" matrix(1 0 0 1 0 0) " stroke-linecap="round" />
	<path d="M 73.788 43.238 h -5.923 V 30.301 c 0 -4.757 -3.871 -8.628 -8.628 -8.628 h -22.37 V 6.471 h -1.576 c -1.339 0 -2.424 1.086 -2.424 2.425 v 16.575 h 21.843 c 4.646 0 8.425 3.779 8.425 8.424 v 12.633 h 5.784 l 8.419 8.263 l 3.809 3.738 v -8.07 L 73.788 43.238 z" style="stroke: none; stroke-width: 1; stroke-dasharray: none; stroke-linecap: butt; stroke-linejoin: miter; stroke-miterlimit: 10; fill: rgb(85,159,52); fill-rule: nonzero; opacity: 1;" transform=" matrix(1 0 0 1 0 0) " stroke-linecap="round" />
	<rect x="48.06" y="16.18" rx="0" ry="0" width="32.69" height="2.9" style="stroke: none; stroke-width: 1; stroke-dasharray: none; stroke-linecap: butt; stroke-linejoin: miter; stroke-miterlimit: 10; fill: rgb(255,255,255); fill-rule: nonzero; opacity: 1;" transform=" matrix(1 0 0 1 0 0) "/>
	<rect x="71.74" y="26.85" rx="0" ry="0" width="9.01" height="2.9" style="stroke: none; stroke-width: 1; stroke-dasharray: none; stroke-linecap: butt; stroke-linejoin: miter; stroke-miterlimit: 10; fill: rgb(255,255,255); fill-rule: nonzero; opacity: 1;" transform=" matrix(1 0 0 1 0 0) "/>
</g>
</svg>